# xmcd
#
# Track frame offsets:
#	150
#	12870
#	25870
#	38562
#	50913
#	63944
#	76824
#	87919
#	100733
#	112430
#	125185
#	132734
#
# Disc length: 1951 seconds
#
# Revision: 0
# Processed by: cddbd v1.5.2PL0 Copyright (c) Steve Scherf et al.
# Submitted via: EasyCDDAExtractor 16.0.9.1
#
DISCID=a5079d0c
DTITLE=Ray Charles - N-103 Ray Charles  Blues Is My Middle Name CD3
DYEAR=1900
DGENRE=
TTITLE0=I'm Just A Lonely Boy
TTITLE1=Snow is Falling
TTITLE2=I Will Not Let You Go
TTITLE3=Honey Honey
TTITLE4=Baby, Won't You Please Come Ho
TTITLE5=Don't Put All Your Dreams in O
TTITLE6=I Wonder Who's Kissing Her Now
TTITLE7=You'll Always Miss the Water
TTITLE8=How Long Blues
TTITLE9=Rockin' Chair Blues
TTITLE10=Guitar Blues
TTITLE11=Late in the Evening
EXTD=
EXTT0=
EXTT1=
EXTT2=
EXTT3=
EXTT4=
EXTT5=
EXTT6=
EXTT7=
EXTT8=
EXTT9=
EXTT10=
EXTT11=
PLAYORDER=
